<svg xmlns="http://www.w3.org/2000/svg" viewBox="0 0 160 160">
  <rect width="160" height="160" rx="34" fill="#177245"/>
  <rect x="25" y="27" width="76" height="90" rx="12" fill="#fff"/>
  <path d="M25 52h76M25 77h76M25 102h76M50 27v90M75 27v90" fill="none" stroke="#b9dec9" stroke-width="5"/>
  <rect x="25" y="27" width="25" height="90" rx="10" fill="#0f5c37"/>
  <path d="M109 49v46m-15-15 15 16 15-16" fill="none" stroke="#fff" stroke-linecap="round" stroke-linejoin="round" stroke-width="10"/>
  <path d="M89 111c0-9 14-16 31-16s31 7 31 16v18c0 9-14 16-31 16s-31-7-31-16z" fill="#0b4b2c"/>
  <ellipse cx="120" cy="111" rx="31" ry="16" fill="#fff"/>
  <path d="M89 111v18c0 9 14 16 31 16s31-7 31-16v-18" fill="none" stroke="#fff" stroke-width="6"/>
</svg>
